<svg id="Layer_1" enable-background="new 0 0 510 510" height="512" viewBox="0 0 510 510" width="512" xmlns="http://www.w3.org/2000/svg"><g><path d="m459.878 240c9.574-27.076 5.528-57.068-10.473-80.609 5.67-44.796-29.41-84.391-74.405-84.391-.005 0-.011 0-.016 0-14.357-19.104-37.3-30.586-61.876-29.977-6.669-25.86-30.193-45.023-58.108-45.023s-51.439 19.163-58.108 45.023c-24.565-.608-47.513 10.865-61.876 29.977-.005 0-.011 0-.016 0-44.968 0-80.078 39.573-74.405 84.391-16.016 23.564-20.038 53.558-10.473 80.609h-35.122v62.5c0 58.412 34.089 109.622 84.65 133.465 21.474 10.127 35.35 31.785 35.35 55.175v18.86h240v-18.86c0-23.391 13.875-45.048 35.35-55.175 50.568-23.846 84.65-75.061 84.65-133.465v-62.5zm-371.713-67.479 4.507-5.622-1.572-7.032c-6.764-30.256 18.472-58.509 49.731-54.475l10.008 1.291 4.968-8.784c9.997-17.677 30.682-26.588 50.49-21.472l19.581 5.058c-.917-21.994-.878-20.84-.878-21.485 0-16.542 13.458-30 30-30s30 13.458 30 30c0 .644.039-.509-.878 21.485l19.581-5.058c19.822-5.12 40.5 3.809 50.49 21.472l4.968 8.784 10.008-1.291c31.153-4.02 56.522 24.102 49.732 54.475l-1.572 7.032 4.507 5.622c15.963 19.918 17.108 46.852 5.141 67.479h-343.953c-11.944-20.587-10.852-47.524 5.141-67.479zm-43.165 97.479h420c-.015 20.425.028 30.621-.035 34.426l-41.221 14.654-56.256-20-56.248 20-56.25-20-56.247 20-56.247-20-56.249 20-41.212-14.654c-.067-4.031-.008 3.202-.035-34.426zm352.554 138.832c-28.499 13.44-47.997 40.628-51.852 71.168h-181.403c-3.856-30.54-23.353-57.728-51.853-71.168-29.832-14.068-51.963-40.024-61.801-70.57l35.602 12.659 56.249-20 56.247 20 56.247-20 56.25 20 56.249-20 56.255 20 35.611-12.661c-9.837 30.547-31.969 56.503-61.801 70.572z"/><path d="m150 180h30v30h-30z"/><path d="m225 120h30v30h-30z"/><path d="m330 165h30v30h-30z"/></g></svg>