<svg id="Capa_1" enable-background="new 0 0 492.901 492.901" height="512" viewBox="0 0 492.901 492.901" width="512" xmlns="http://www.w3.org/2000/svg"><g><path d="m103.063 191.309-15.114 10-15.113-10-10-73.765 10-102.431c0-8.347 6.766-15.113 15.113-15.113 8.347 0 15.114 6.766 15.114 15.113l10 98.54z" fill="#f8e883"/><path d="m479.878 37.322-354.78 4.787v29.036h354.883c3.815 0 6.907-3.092 6.907-6.907v-20.01c0-3.855-3.155-6.964-7.01-6.906z" fill="#ac5e2e"/><path d="m479.878 37.322-27.673.373c2.719.926 4.683 3.494 4.683 6.533v20.01c0 3.815-3.092 6.907-6.907 6.907h30c3.815 0 6.907-3.092 6.907-6.907v-20.01c0-3.855-3.155-6.964-7.01-6.906z" fill="#a1582b"/><path d="m72.836 191.309-16.635 10-13.592-10v-176.196c0-8.347 6.766-15.113 15.113-15.113 8.347 0 15.113 6.766 15.113 15.113v176.196z" fill="#fcf5c7"/><path d="m133.289 191.309-18.759 10-11.468-10v-176.196c.001-8.347 6.767-15.113 15.114-15.113 8.347 0 15.113 6.766 15.113 15.113z" fill="#fcf5c7"/><path d="m235.423 492.901h-205.006c-3.42 0-6.262-2.636-6.52-6.046l-17.884-236.946 126.152-10 127.662 10-17.884 236.946c-.258 3.411-3.1 6.046-6.52 6.046z" fill="#bed9fd"/><path d="m237.431 191.309h-209.022c-2.413 0-4.546 1.567-5.266 3.87l-17.13 54.73h253.813l-17.129-54.729c-.72-2.303-2.853-3.871-5.266-3.871z" fill="#f7f7f7"/><path d="m479.981 99.145h-431.465c-3.814 0-6.907-3.092-6.907-6.907v-14.216c0-3.774 3.03-6.85 6.804-6.906l431.466-5.795c3.854-.057 7.01 3.051 7.01 6.906v20.01c-.001 3.816-3.093 6.908-6.908 6.908z" fill="#d77f4a"/><path d="m229.827 249.909-17.884 236.946c-.257 3.41-3.1 6.046-6.52 6.046h30c3.42 0 6.262-2.636 6.52-6.046l17.884-236.946z" fill="#80b6fc"/><path d="m242.698 195.179c-.721-2.302-2.854-3.87-5.266-3.87h-30c2.413 0 4.546 1.567 5.266 3.87l17.129 54.73h30z" fill="#ddebfd"/><path d="m479.878 65.322-27.673.373c2.719.926 4.683 3.494 4.683 6.533v20.01c0 3.815-3.092 6.907-6.907 6.907h30c3.815 0 6.907-3.092 6.907-6.907v-20.01c0-3.855-3.155-6.964-7.01-6.906z" fill="#c46b35"/><path d="" style="fill:none;stroke:#000;stroke-width:15;stroke-linecap:round;stroke-linejoin:round;stroke-miterlimit:10"/><path d="m220.986 367.039-10.596 7.891 9.34 8.743c10.385 4.387 17.798 14.472 18.291 26.318-7.874 1.402-15.057 4.816-21.008 9.682l-11.582 30.957 8.245 13.256c13.559 2.554 23.915 14.281 24.354 28.468.001 0 .001-.001.002-.001.539-.235 1.041-.541 1.494-.905 0 0 .001 0 .001-.001.218-.175.423-.366.616-.568.012-.013.025-.025.037-.038.193-.204.373-.42.539-.648.008-.012.016-.024.024-.035.147-.206.28-.422.403-.644.024-.044.049-.087.072-.132.124-.238.237-.483.332-.738.008-.021.013-.043.021-.064.083-.23.15-.467.208-.708.016-.067.031-.134.045-.202.054-.266.098-.537.119-.814v-.001l1.721-22.801c-6.644-8.059-15.969-13.83-26.599-15.929 3.225-13.043 15.022-22.744 29.047-22.744.157 0 .313.015.469.017l2.633-34.885c-5.705-11.265-15.905-19.883-28.228-23.474z" fill="#bed9fd"/><path d="m208.13 429.323c-6.849-9.98-17.524-17.129-29.892-19.331.663-15.918 13.814-28.665 29.892-28.665 4.113 0 8.031.839 11.601 2.346l.66-8.743.596-7.891c.702.205-7.628-1.828-12.856-1.828-15.753 0-29.678 7.956-37.982 20.057-8.304-12.101-22.229-20.057-37.982-20.057s-29.678 7.956-37.982 20.057c-8.304-12.101-22.229-20.057-37.982-20.057-16.941 0-31.764 9.204-39.758 22.867l2.817 37.326c13.564.466 24.861 10.003 28.006 22.721-9.908 1.957-18.684 7.101-25.211 14.316l1.843 24.413c.142 1.876 1.068 3.514 2.44 4.611.945-15.655 13.975-28.103 29.863-28.103 16.371 0 29.706 13.216 29.914 29.538h16.136c.209-16.322 13.544-29.538 29.914-29.538s29.706 13.216 29.914 29.538h16.136c.209-16.322 13.544-29.538 29.914-29.538 1.896 0 3.748.184 5.547.522l3.337-44.213m-160.814 9.652c-6.849-9.98-17.524-17.129-29.892-19.331.663-15.918 13.814-28.665 29.892-28.665s29.229 12.747 29.892 28.665c-12.369 2.202-23.044 9.351-29.892 19.331zm37.982 37.982c-6.693-9.753-17.037-16.808-29.047-19.18 3.225-13.043 15.022-22.744 29.047-22.744s25.822 9.701 29.047 22.744c-12.01 2.372-22.354 9.427-29.047 19.18zm37.982-37.982c-6.849-9.98-17.524-17.129-29.892-19.331.663-15.918 13.814-28.665 29.892-28.665s29.229 12.747 29.892 28.665c-12.368 2.202-23.043 9.351-29.892 19.331zm37.982 37.982c-6.693-9.753-17.037-16.808-29.047-19.18 3.225-13.043 15.022-22.744 29.047-22.744s25.822 9.701 29.047 22.744c-12.01 2.372-22.354 9.427-29.047 19.18z" fill="#d5e6fd"/></g></svg>