<svg id="Capa_1" enable-background="new 0 0 512 512" height="512" viewBox="0 0 512 512" width="512" xmlns="http://www.w3.org/2000/svg"><g><path d="m183.621 68.674 278.549-7.049c2.304-.058 4.204 1.794 4.204 4.099v26.358c0 2.264-1.836 4.1-4.1 4.1h-278.305c-7.597 0-13.756-6.159-13.756-13.756 0-7.462 5.949-13.563 13.408-13.752z" fill="#5a5a5a"/><path d="m462.17 61.625-21.946.555v15.373c0 2.264-1.836 4.1-4.1 4.1h-265.873c-.014.257-.038.512-.038.772 0 7.597 6.159 13.756 13.756 13.756h278.305c2.264 0 4.1-1.836 4.1-4.1v-26.357c0-2.305-1.9-4.157-4.204-4.099z" fill="#444"/><path d="m360.066 196.435v-.002c-.504-.48-41.656-39.702-40.356-38.464-5.478-5.221-12.372-8.714-19.822-10.042l-17.38-3.098c-15.874-2.829-29.542-17.431-48.61-16.193l-14.881.966c-20.432 1.327-30.271 17.858-29.484 16.833-13.19 17.178-33.663 15.065-30.561 15.065-14.644 0-21.018 6.236-44.373 21.724-30.372 22.482-49.22 53.793-49.22 88.43h328.43c-.001-28.293-12.582-54.364-33.743-75.219z" fill="#dff6fd"/><path d="m360.066 196.435v-.003c-.488-.465-39.123-37.289-40.356-38.464-5.478-5.221-12.372-8.714-19.822-10.042l-17.38-3.098c-15.874-2.829-29.542-17.431-48.61-16.193-15.545 1.009-18.361.886-24.017 2.688 11.243 4.112 21.079 11.567 31.949 13.505 35.236 6.28 24.155.732 77.559 51.603v.003c21.161 20.855 33.742 46.927 33.742 75.22h40.678c-.001-28.293-12.582-54.364-33.743-75.219z" fill="#c8effe"/><path d="m138.18 7.502-11.458 6.503c-11.885 6.745-19.54 21.756-19.54 38.316v11.416c0 27.226 19.519 43.539 35.458 43.539 46.655 0 47.808.963 55.716-3.24l20.279-10.777c24.05-12.781 27.31-53.95 6.423-72.885-13.612-12.339-21.05-21.61-35.454-20.241l-40.454 3.848c-3.788.361-7.5 1.552-10.97 3.521z" fill="#dff6fd"/><path d="m45.626 309.402v-31.285c0-3.569 2.893-6.463 6.463-6.463h355.009c3.569 0 6.463 2.893 6.463 6.463v31.285z" fill="#5a5a5a"/><g fill="#99e6fc"><ellipse cx="269.764" cy="234.572" rx="17.695" ry="12.925"/><ellipse cx="228.712" cy="192.06" rx="17.695" ry="12.925"/><ellipse cx="292.851" cy="189.49" rx="12.925" ry="17.695" transform="matrix(.707 -.707 .707 .707 -48.216 262.577)"/><ellipse cx="340.489" cy="232.001" rx="12.925" ry="17.695" transform="matrix(.707 -.707 .707 .707 -64.323 308.714)"/><ellipse cx="155.337" cy="65.978" rx="17.695" ry="12.925"/></g><path d="m229.302 309.402h-183.676l2.679 24.75c7.606 70.265 54.536 127.583 117.448 151.032h127.097c62.913-23.449 109.842-80.767 117.448-151.032l2.679-24.75z" fill="#e94444"/><path d="m407.098 271.655h-40.678c3.569 0 6.463 2.893 6.463 6.463v31.285h40.678v-31.285c-.001-3.57-2.894-6.463-6.463-6.463z" fill="#444"/><path d="m372.3 309.402-2.679 24.75c-7.606 70.265-54.536 127.583-117.448 151.032h40.678c62.913-23.449 109.842-80.767 117.448-151.032l2.679-24.75z" fill="#d83131"/><path d="m165.754 485.184h127.097v22.716c0 2.264-1.836 4.1-4.1 4.1h-118.897c-2.264 0-4.1-1.836-4.1-4.1z" fill="#5a5a5a"/><path d="m252.173 485.184v22.716c0 2.265-1.836 4.1-4.1 4.1h40.678c2.264 0 4.1-1.836 4.1-4.1v-22.716z" fill="#444"/><path d="m225.058 20.375c-13.612-12.339-21.05-21.61-35.454-20.24l-14.804 1.407c8.026 3.014 14.545 10.162 24.108 18.833 20.887 18.934 17.627 60.104-6.423 72.885l-20.279 10.777c-4.356 2.315-6.666 3.063-15.659 3.267 33.085.123 34.778.47 41.809-3.267l20.279-10.777c24.05-12.782 27.31-53.951 6.423-72.885z" fill="#c8effe"/><path d="m183.621 7.155 278.549-7.049c2.304-.058 4.204 1.794 4.204 4.099v26.358c0 2.264-1.836 4.1-4.1 4.1h-278.305c-7.597 0-13.756-6.159-13.756-13.756 0-7.462 5.949-13.563 13.408-13.752z" fill="#5a5a5a"/><path d="m462.17.106-21.946.555v15.373c0 2.265-1.836 4.1-4.1 4.1h-265.873c-.014.257-.038.512-.038.772 0 7.597 6.159 13.756 13.756 13.756h278.305c2.264 0 4.1-1.836 4.1-4.1v-26.357c0-2.305-1.9-4.157-4.204-4.099z" fill="#444"/></g></svg>